<svg width="18" height="16" viewBox="0 0 18 16" fill="none" xmlns="http://www.w3.org/2000/svg">
<g clip-path="url(#clip0_676_21)">
<path d="M16.7402 2.9128H3.09058L2.88818 0.6528C2.87218 0.474408 2.78999 0.308466 2.65777 0.187646C2.52555 0.0668266 2.35288 -0.000115502 2.17378 1.49604e-07H0.717777C0.527669 1.49604e-07 0.345348 0.0755199 0.210922 0.209946C0.0764963 0.344372 0.000976563 0.526693 0.000976562 0.7168C0.000976563 0.906907 0.0764963 1.08923 0.210922 1.22365C0.345348 1.35808 0.527669 1.4336 0.717777 1.4336H1.51778L2.34258 10.62C2.40098 11.2824 2.75858 12.0008 3.37538 12.4888C2.26418 13.908 3.27938 16 5.08738 16C6.58738 16 7.64498 14.504 7.13058 13.0864H11.0546C10.541 14.5024 11.5962 16 13.0986 16C13.6749 15.9994 14.2273 15.7702 14.6348 15.3627C15.0423 14.9552 15.2715 14.4027 15.2722 13.8264C15.2715 13.2501 15.0423 12.6976 14.6348 12.2901C14.2273 11.8826 13.6749 11.6534 13.0986 11.6528H5.09218C4.54738 11.6528 4.07298 11.3248 3.86818 10.8456L15.325 10.172C15.4774 10.1631 15.623 10.1058 15.7406 10.0084C15.8581 9.91093 15.9415 9.77852 15.9786 9.6304L17.4354 3.804C17.4617 3.69825 17.4637 3.58788 17.441 3.48127C17.4184 3.37466 17.3717 3.27461 17.3047 3.18871C17.2376 3.10281 17.1518 3.03333 17.0539 2.98552C16.9559 2.93771 16.8484 2.91284 16.7394 2.9128H16.7402ZM5.08658 14.5664C4.89627 14.5575 4.71669 14.4757 4.58514 14.3379C4.45359 14.2001 4.38019 14.0169 4.38019 13.8264C4.38019 13.6359 4.45359 13.4527 4.58514 13.3149C4.71669 13.1771 4.89627 13.0953 5.08658 13.0864C5.27688 13.0953 5.45647 13.1771 5.58801 13.3149C5.71956 13.4527 5.79296 13.6359 5.79296 13.8264C5.79296 14.0169 5.71956 14.2001 5.58801 14.3379C5.45647 14.4757 5.27688 14.5575 5.08658 14.5664V14.5664ZM13.0986 14.5664C12.9083 14.5575 12.7287 14.4757 12.5971 14.3379C12.4656 14.2001 12.3922 14.0169 12.3922 13.8264C12.3922 13.6359 12.4656 13.4527 12.5971 13.3149C12.7287 13.1771 12.9083 13.0953 13.0986 13.0864C13.2889 13.0953 13.4685 13.1771 13.6 13.3149C13.7316 13.4527 13.805 13.6359 13.805 13.8264C13.805 14.0169 13.7316 14.2001 13.6 14.3379C13.4685 14.4757 13.2889 14.5575 13.0986 14.5664V14.5664ZM14.7154 8.772L3.67538 9.42L3.21938 4.3472H15.8218L14.7154 8.7712V8.772Z" fill="white"/>
</g>
<defs>
<clipPath id="clip0_676_21">
<rect width="17.6" height="16" fill="white"/>
</clipPath>
</defs>
</svg>
